<?xml version="1.0" encoding="UTF-8"?><svg id="Layer_1" xmlns="http://www.w3.org/2000/svg" viewBox="0 0 73.09 93.89"><defs><style>.cls-1{fill:#a02a21;stroke:#ae2c2b;stroke-miterlimit:10;}</style></defs><path class="cls-1" d="M20.85,45.23c-.18-3.01-1.07-5.95-1.33-8.95-.82-9.84,5.45-19.19,13.57-24.81S50.99,3.26,60.55,.77c-3.01,5.88-6.05,11.8-7.87,18.15-2.29,7.96-3.04,17.18-9.34,22.55-4.4,3.75-10.48,4.63-15.86,6.75s-10.81,6.77-10.12,12.51c8.55,.94,14.38-8.5,22.34-11.76,4.61-1.89,9.78-1.61,14.75-1.29,5.87,.37,11.75,.74,17.62,1.1-3.03,3.54-6.27,6.91-9.69,10.09-4.26,3.95-9.85,7.84-15.44,6.24-3-.86-5.33-3.15-8.05-4.68-6.48-3.64-15.35-2.3-20.46,3.08,3.11,5.8,12.03,4.2,17.61,7.69,5.77,3.61,6.58,11.67,5.82,18.43-.2,1.81-1.28,4.19-3.03,3.69-1.16-.33-1.55-1.71-2.06-2.8-3.46-7.38-17.35-5.54-19.22-13.47-.47-1.99,.07-4.07,.07-6.12,0-2.05-.84-4.41-2.8-4.99-.97-.28-2.01-.07-2.98,.18-3.95,1-7.57,2.7-11.29,4.24-.67-6.49,8.18-5.64,12.09-8.46,5.21-3.76,8.62-10.21,8.23-16.68Z"/></svg>