<?xml version="1.0" encoding="UTF-8"?><svg id="Layer_1" xmlns="http://www.w3.org/2000/svg" viewBox="0 0 155.7 75.86"><defs><style>.cls-1,.cls-2{fill:#fff;}.cls-3{fill:#dadada;}.cls-4{fill:#a02a21;}.cls-4,.cls-2{stroke:#fff;stroke-miterlimit:10;stroke-width:2px;}</style></defs><path class="cls-3" d="M153.75,.16c2.21,9.21,2.54,18.86,.97,28.2-3.84-.1-7.43,3.25-7.61,7.08s3.1,7.49,6.93,7.75c.16,9.64,.32,19.28,.48,28.92-28.41-.38-56.82-.77-85.23-1.15-20.92-.28-41.84-.56-62.75,.11-2.01-8.8-2.29-17.99-.84-26.89,4.01-.07,7.63-3.66,7.75-7.67s-3.29-7.8-7.29-8.1c-.31-.04-.14-15.22-.15-16.63-.02-2.45-.55-5.5-.07-7.89,.67-3.32,.6-2.88,4.31-3.01,11.65-.41,23.33-.37,34.98-.5C68.43,.11,91.6-.01,114.78,0c12.99,0,25.98,.06,38.97,.16Z"/><path class="cls-4" d="M149.95,2.91c2.21,9.21,2.54,18.86,.97,28.2-3.84-.1-7.43,3.25-7.61,7.08s3.1,7.49,6.93,7.75c.16,9.64,.32,19.28,.48,28.92-28.41-.38-56.82-.77-85.23-1.15-20.92-.28-41.84-.56-62.75,.11-2.01-8.8-2.29-17.99-.84-26.89,4.01-.07,7.63-3.66,7.75-7.67s-3.29-7.8-7.29-8.1c-.31-.04-.14-15.22-.15-16.63-.02-2.45-.55-5.5-.07-7.89,.67-3.32,.6-2.88,4.31-3.01,11.65-.41,23.33-.37,34.98-.5,23.18-.26,46.35-.38,69.53-.37,12.99,0,25.98,.06,38.97,.16Z"/><path class="cls-1" d="M130.38,10.59v3.58c0,.64,.28,1.31,.73,1.77,.23,.24,.49,.42,.8,.52,.3,.16,.62,.23,.96,.22,.65-.03,1.32-.24,1.77-.73s.73-1.09,.73-1.77v-3.58c0-.64-.28-1.31-.73-1.77-.23-.24-.49-.42-.8-.52-.3-.16-.62-.23-.96-.22-.65,.03-1.32,.24-1.77,.73s-.73,1.09-.73,1.77h0Z"/><path class="cls-1" d="M130.38,20.92v3.74c0,.64,.28,1.31,.73,1.77s1.15,.76,1.77,.73,1.32-.24,1.77-.73,.73-1.09,.73-1.77v-3.74c0-.64-.28-1.31-.73-1.77s-1.15-.76-1.77-.73-1.32,.24-1.77,.73-.73,1.09-.73,1.77h0Z"/><path class="cls-1" d="M130.38,34.24v3.63c0,.64,.28,1.31,.73,1.77s1.15,.76,1.77,.73,1.32-.24,1.77-.73,.73-1.09,.73-1.77v-3.63c0-.64-.28-1.31-.73-1.77s-1.15-.76-1.77-.73-1.32,.24-1.77,.73-.73,1.09-.73,1.77h0Z"/><path class="cls-1" d="M130.38,46.81v3.82c0,.64,.28,1.31,.73,1.77s1.15,.76,1.77,.73,1.32-.24,1.77-.73,.73-1.09,.73-1.77v-3.82c0-.64-.28-1.31-.73-1.77s-1.15-.76-1.77-.73-1.32,.24-1.77,.73-.73,1.09-.73,1.77h0Z"/><rect class="cls-2" x="28.73" y="20.92" width="72.37" height="35.76" rx="2.48" ry="2.48"/><path class="cls-1" d="M130.38,64.23v.24c0,.64,.28,1.31,.73,1.77,.23,.24,.49,.42,.8,.52,.3,.16,.62,.23,.96,.22,.65-.03,1.32-.24,1.77-.73s.73-1.09,.73-1.77v-3.47c0-.64-.28-1.31-.73-1.77-.23-.24-.49-.42-.8-.52-.3-.16-.62-.23-.96-.22-.65,.03-1.32,.24-1.77,.73s-.73,1.09-.73,1.77v.24c0,.64,.28,1.31,.73,1.77,.23,.24,.49,.42,.8,.52,.3,.16,.62,.23,.96,.22,.65-.03,1.32-.24,1.77-.73s.73-1.09,.73-1.77v-.24c0-.64-.28-1.31-.73-1.77-.23-.24-.49-.42-.8-.52-.3-.16-.62-.23-.96-.22-.65,.03-1.32,.24-1.77,.73s-.73,1.09-.73,1.77v3.47c0,.64,.28,1.31,.73,1.77,.23,.24,.49,.42,.8,.52,.3,.16,.62,.23,.96,.22,.65-.03,1.32-.24,1.77-.73s.73-1.09,.73-1.77v-.24c0-.64-.28-1.31-.73-1.77-.23-.24-.49-.42-.8-.52-.3-.16-.62-.23-.96-.22-.65,.03-1.32,.24-1.77,.73s-.73,1.09-.73,1.77h0Z"/></svg>