<?xml version="1.0" encoding="UTF-8"?><svg id="Layer_1" xmlns="http://www.w3.org/2000/svg" viewBox="0 0 130.18 117.54"><defs><style>.cls-1{fill:#a02a21;stroke:#ae2c2b;stroke-miterlimit:10;stroke-width:2px;}</style></defs><path class="cls-1" d="M27.04,107.68c-10.09-7.88-18.73-17.6-25.37-28.53,9.44-1.07,18.88-2.14,28.31-3.21,3.65-.41,7.4-.82,10.93,.19,3.32,.95,6.16,3.07,8.91,5.15,10.78,8.14,21.56,16.29,32.34,24.43-2.32-12.52-9.91-23.97-20.53-30.98-11.91-7.87-28.39-11.47-33.99-24.6-1.62-3.8-2.07-7.99-2.42-12.11-.97-11.45-1.34-22.95-1.09-34.44,22.6,10.77,39.83,32.2,45.5,56.58,1.92,8.27,4.12,18.62,12.36,20.68,3.96-8.52-1.45-18.13-5.18-26.75-4.07-9.39-6.22-19.91-4.18-29.94,2.04-10.03,8.79-19.42,18.43-22.88,5.98,17.78,6.84,37.25,2.44,55.48-2.29,9.5-5.98,18.71-6.97,28.43-.98,9.72,1.31,20.52,8.92,26.66-1.13-22.04,5.63-44.4,18.79-62.12,3.39-4.56,8.02-9.2,13.69-8.91,1.49,14.51,2.85,29.84-3.26,43.08-4.69,10.15-13.27,17.89-21.61,25.32-1.73,1.54-3.49,3.1-5.62,4.02-2.08,.9-4.38,1.12-6.64,1.3-19.27,1.55-47.36,5.93-63.74-6.86Z"/></svg>