<?xml version="1.0" encoding="UTF-8"?><svg id="Layer_1" xmlns="http://www.w3.org/2000/svg" viewBox="0 0 154.21 156.79"><defs><style>.cls-1{fill:#e7dbc6;}.cls-2{fill:#a02a21;}</style></defs><path class="cls-1" d="M76.79,24.08c1.32-4.94,2.21-10.06,4.49-14.63S87.6,.79,92.67,.1c5.49-.75,10.98,2.8,13.62,7.68s2.83,10.76,1.77,16.21-3.27,10.58-5.24,15.76c-3.15,8.32-5.7,16.87-7.61,25.56,15.41,.28,31.13-4.04,46.02-.07,4.52,1.21,9.11,3.39,11.52,7.4,3.66,6.08,.08,15.2-6.73,17.17,2.76-.21,4.93,2.42,5.84,5.03,2.52,7.23-1.46,16.09-8.53,19.01,4.67,3.34,6.93,9.71,5.41,15.24s-6.73,9.85-12.45,10.32c.93,4.38-1.93,8.87-5.74,11.21s-8.4,3-12.84,3.53c-13.93,1.65-27.94,2.53-41.97,2.63-4.56,.03-9.19-.03-13.58-1.29-3.36-.97-6.46-2.6-9.41-4.5-3.52-2.27-5.58-6.19-5.49-10.37,.02-.92,0-1.85-.02-2.76-.43-18.51-.87-37.02-1.3-55.53-.07-3.04-1.32-8.5-.26-11.37s4.88-4.78,7.02-6.78c5.37-5.02,10.08-10.75,13.99-16.98,4.49-7.15,7.93-14.96,10.1-23.12Z"/><rect class="cls-2" y="66.46" width="47.78" height="85.88" rx="8.02" ry="8.02"/></svg>