<?xml version="1.0" encoding="UTF-8"?><svg id="Layer_1" xmlns="http://www.w3.org/2000/svg" viewBox="0 0 377.1 312.44"><defs><style>.cls-1{fill:#ededed;}.cls-2{fill:#fff;}.cls-3{fill:#a02a21;}.cls-4{fill:#dadada;}</style></defs><path class="cls-4" d="M299.77,312.44H91.5c-15.93,0-24.48-13.58-28.84-28.84L36.19,127.74l321.87-2.41-29.46,158.27c-4.81,15.96-12.91,28.84-28.84,28.84Z"/><rect class="cls-1" x="13.14" y="87.54" width="363.97" height="62.77" rx="23.64" ry="23.64"/><path class="cls-1" d="M255.17,108.4C277.39,98.58,259.3,.11,199.69,.11s-89.13,103.79-65.79,110.51c24.62,7.09,14.01-82.07,63.34-88.71,59.07-7.94,32.85,97.58,57.93,86.49Z"/><path class="cls-3" d="M286.63,312.34H78.36c-15.93,0-24.48-13.58-28.84-28.84L23.06,127.64l321.87-2.41-29.46,158.27c-4.81,15.96-12.91,28.84-28.84,28.84Z"/><rect class="cls-3" x="0" y="87.43" width="363.97" height="62.77" rx="23.64" ry="23.64"/><rect class="cls-2" x="81.46" y="174.01" width="27.45" height="108.91" rx="12" ry="12"/><rect class="cls-2" x="138.29" y="172.53" width="27.45" height="108.91" rx="12" ry="12"/><rect class="cls-2" x="195.12" y="172.53" width="27.45" height="108.91" rx="12" ry="12"/><rect class="cls-2" x="255.3" y="172.53" width="27.45" height="108.91" rx="12" ry="12"/><path class="cls-3" d="M242.04,108.3C264.25,98.47,246.16,0,186.56,0S97.42,103.79,120.77,110.51c24.62,7.09,14.01-82.07,63.34-88.71,59.07-7.94,32.85,97.58,57.93,86.49Z"/></svg>