<?xml version="1.0" encoding="UTF-8"?><svg id="Layer_1" xmlns="http://www.w3.org/2000/svg" viewBox="0 0 69.92 58.86"><defs><style>.cls-1{fill:#a02a21;stroke:#ae2c2b;stroke-miterlimit:10;stroke-width:2px;}</style></defs><path class="cls-1" d="M68.72,56.2c-1.13,2.06-4.28,2.08-6.17,.69s-2.84-3.68-3.81-5.82-2.18-4.37-4.29-5.39c-1.13-.55-2.42-.69-3.68-.73-4.17-.14-8.33,.34-12.37,1.36-6.95,1.76-16.45,2.83-22.6-2.15-3.8-3.08-5.65-7.91-7.23-12.54C5.39,22.29,5.06,12.18,1.14,3.27,.6,2.05,1.69,.74,2.99,1.05L31.06,7.68c2.86,.68,5.74,1.36,8.45,2.52,7.83,3.37,13.68,10.97,14.95,19.4,.41,2.74,.38,5.56,1.11,8.23,1.03,3.76,3.49,6.93,5.89,10,2.47,3.15,4.8,5.22,7.27,8.37Z"/></svg>