<?xml version="1.0" encoding="UTF-8"?><svg id="Layer_1" xmlns="http://www.w3.org/2000/svg" viewBox="0 0 122.57 129.77"><defs><style>.cls-1{fill:#c4442e;}.cls-2{fill:#575756;}.cls-3{fill:#a02a21;stroke:#d44536;}.cls-3,.cls-4,.cls-5{stroke-miterlimit:10;}.cls-4{fill:#b13d2d;}.cls-4,.cls-5{stroke:#b13d2d;}.cls-5{fill:none;}.cls-6{opacity:.7;}</style></defs><rect class="cls-2" x="26.97" y="110.5" width="13.04" height="16.22"/><rect class="cls-2" x="13.26" y="102.15" width="98.24" height="12.4" rx="1.99" ry="1.99"/><rect class="cls-3" x=".5" y="59.99" width="121.57" height="50.52" rx="6.37" ry="6.37"/><path class="cls-3" d="M17.62,20.27c.06-4.24,.19-8.72,2.44-12.3,2.04-3.25,5.61-5.3,9.31-6.3s7.58-1.06,11.42-1.09c15.96-.16,31.93-.07,47.89,.28,5.17,.11,10.87,.45,14.6,4.04,4.08,3.92,4.35,10.25,4.34,15.91-.03,20.93-.06,41.87-.09,62.8-11.06-.23-22.12-.47-33.18-.7-15.47-.33-30.94-.65-46.41-.51-2.08,.02-8.23,1.2-9.7-.33s-.52-9.12-.59-11.21c-.24-7.93-.31-15.86-.29-23.8,.01-8.93,.14-17.85,.26-26.78Z"/><rect class="cls-4" x="60.18" y="39.48" width="4.35" height="95.57" rx="1.23" ry="1.23" transform="translate(149.63 24.91) rotate(90)"/><rect class="cls-4" x="14.57" y="59.99" width="2.92" height="28.08" rx="1.23" ry="1.23"/><rect class="cls-4" x="107.32" y="59.99" width="2.83" height="28.08" rx="1.23" ry="1.23"/><g class="cls-6"><line class="cls-5" x1="42.29" y1="19.18" x2="50.4" y2="26.99"/><line class="cls-5" x1="50.4" y1="19.18" x2="42.29" y2="26.99"/></g><g class="cls-6"><line class="cls-5" x1="74.02" y1="19.18" x2="82.13" y2="26.99"/><line class="cls-5" x1="82.13" y1="19.18" x2="74.02" y2="26.99"/></g><g class="cls-6"><line class="cls-5" x1="42.29" y1="39.58" x2="50.4" y2="47.39"/><line class="cls-5" x1="50.4" y1="39.58" x2="42.29" y2="47.39"/></g><g class="cls-6"><line class="cls-5" x1="74.02" y1="39.58" x2="82.13" y2="47.39"/><line class="cls-5" x1="82.13" y1="39.58" x2="74.02" y2="47.39"/></g><rect class="cls-1" x="16.03" y="70.12" width="92.7" height="18.05" rx="2.67" ry="2.67"/><rect class="cls-2" x="83.01" y="110.91" width="13.04" height="16.22"/><path class="cls-2" d="M40.43,129.36h-13.7c-3.32-.12-3.75,.39-3.75-1.63h0c0-2.01,1.65-3.66,3.66-3.66h13.7c2.01,0,3.66,1.65,3.66,3.66h0c0,2.01-.32,1.44-3.56,1.63Z"/><path class="cls-2" d="M96.47,129.77h-13.7c-3.32-.12-3.75,.39-3.75-1.63h0c0-2.01,1.65-3.66,3.66-3.66h13.7c2.01,0,3.66,1.65,3.66,3.66h0c0,2.01-.32,1.44-3.56,1.63Z"/></svg>