<?xml version="1.0" encoding="UTF-8"?><svg id="Layer_1" xmlns="http://www.w3.org/2000/svg" viewBox="0 0 178.19 174.34"><defs><style>.cls-1{fill:#f6f6f6;}.cls-2{fill:#ededed;}.cls-3{fill:#fff;}.cls-4{fill:#9e322d;}.cls-5{fill:#dadada;}.cls-6{fill:#c6c6c6;}.cls-7{fill:#ae2c2b;stroke:#ae2c2b;stroke-miterlimit:10;stroke-width:2px;}</style></defs><rect class="cls-1" x="30.31" y="54.53" width="139.6" height="112.7" rx="12" ry="12" transform="translate(5.85 -5.01) rotate(2.95)"/><rect class="cls-6" x="11.22" y="51.69" width="160.61" height="112.7" rx="12" ry="12" transform="translate(-15.48 15.31) rotate(-8.82)"/><rect class="cls-2" x="7.1" y="31.91" width="165.82" height="125.52" rx="12" ry="12" transform="translate(-10.1 10.75) rotate(-6.47)"/><rect class="cls-3" y="31.78" width="170.49" height="126.28" rx="12" ry="12"/><rect class="cls-5" x="26.09" y="60.65" width="23.93" height="15.95"/><rect class="cls-5" x="74.28" y="60.65" width="23.93" height="15.95"/><rect class="cls-5" x="120.47" y="60.39" width="23.93" height="15.95"/><rect class="cls-5" x="26.09" y="94.93" width="23.93" height="15.95"/><rect class="cls-5" x="74.28" y="94.93" width="23.93" height="15.95"/><rect class="cls-5" x="120.47" y="94.67" width="23.93" height="15.95"/><rect class="cls-5" x="27.09" y="126.29" width="23.93" height="15.95"/><rect class="cls-5" x="75.27" y="126.29" width="23.93" height="15.95"/><rect class="cls-5" x="121.47" y="126.04" width="23.93" height="15.95"/><path class="cls-4" d="M155.36,44.25H14.46c-10.11-.96-14.19,1.87-14.46-4.44v-14.05c0-7.99,6.66-14.53,14.79-14.53H155.69c8.14,0,14.79,6.54,14.79,14.53v14.05c.12,5.87-1.65,3.62-15.12,4.44Z"/><path class="cls-7" d="M126.59,69.27c-1.28-.98-1.75-.47-2.84-.82-1.03-.34-1.71-1.51-1.5-2.57s1.27-1.89,2.36-1.82c1.1,.07,1.96,.9,2.87,1.52s2.19,1.06,3.04,.37c.52-.42,.7-1.15,.74-1.82,.08-1.64-.5-3.23-.72-4.85-.08-.59-.11-1.24,.22-1.74,.23-.35,.61-.58,.99-.75,.66-.29,1.49-.42,2.04,.05,.41,.35,.52,.95,.54,1.49,.05,1.77-.64,3.49-.66,5.26,0,.32,.04,.69,.29,.88,.11,.09,.25,.13,.39,.14,.74,.08,1.37-.49,2-.89s1.59-.61,2.01,.01c.49,.72-.3,1.65-.24,2.51,0,.13,.04,.26,.14,.34,.07,.06,.16,.09,.26,.1,.6,.08,1.13-.37,1.58-.77,.58-.53,1.19-1.07,1.93-1.33s1.66-.18,2.19,.4c.75,.81,.43,2.13-.17,3.05-.37,.56-.85,1.09-1.48,1.31-.79,.28-1.67,.06-2.51,.1s-1.82,.59-1.75,1.43c.04,.54,.51,.96,.99,1.22,.36,.2,.75,.36,1.15,.47,.29,.08,.6,.14,.79,.37,.27,.34,.1,.89-.26,1.12s-.84,.2-1.25,.05-.77-.4-1.15-.6c-.39-.21-1-.29-1.16,.13-.04,.11-.04,.24-.02,.36,.18,1.27,1.5,2.29,1.28,3.55-.1,.6-.59,1.12-1.19,1.25s-1.26-.12-1.61-.62c-.48-.69-.42-1.76-1.14-2.19-.43-.26-1.01-.16-1.41,.15s-.64,.78-.79,1.26c-.32,1.03-.28,2.14-.61,3.16s-1.26,2.01-2.32,1.83c-.89-.15-1.47-1.09-1.52-1.99s.3-1.77,.64-2.6c.35-.85,.71-1.71,1.06-2.56,.16-.39,.33-.79,.35-1.22s-.13-.88-.48-1.12c-.45-.31-1.08-.16-1.52,.17s-.73,.8-1.08,1.21c-.53,.63-1.26,1.18-2.08,1.16s-1.62-.85-1.36-1.62c.14-.42,.53-.7,.89-.95,.53-.37,1.06-.73,1.58-1.1,.45-.31,.94-.68,1.04-1.22,.11-.6-.31-1.21-.87-1.47-.6-.29-.9-.48-.94-.35"/><rect class="cls-5" x="38.05" y="0" width="13.14" height="26.69" rx="6.57" ry="6.57"/><rect class="cls-5" x="79.67" y="0" width="13.14" height="26.69" rx="6.57" ry="6.57"/><rect class="cls-5" x="118.01" y="0" width="13.14" height="26.69" rx="6.57" ry="6.57"/></svg>